<?xml version="1.0" standalone="no"?>
<!DOCTYPE svg PUBLIC "-//W3C//DTD SVG 20010904//EN"
 "http://www.w3.org/TR/2001/REC-SVG-20010904/DTD/svg10.dtd">
<svg version="1.0" xmlns="http://www.w3.org/2000/svg"
 width="1024.000000pt" height="1024.000000pt" viewBox="0 0 1024.000000 1024.000000"
 preserveAspectRatio="xMidYMid meet">
<metadata>
Created by potrace 1.14, written by Peter Selinger 2001-2017
</metadata>
<g transform="translate(0.000000,1024.000000) scale(0.100000,-0.100000)"
fill="#000000" stroke="none">
<path d="M4995 8326 c-19 -19 -25 -35 -25 -69 0 -50 -31 -182 -53 -224 -28
-53 -98 -122 -151 -148 -30 -14 -89 -32 -132 -40 -84 -14 -114 -36 -114 -80 0
-42 30 -64 105 -75 175 -27 286 -127 330 -297 8 -31 15 -75 15 -98 1 -118 116
-157 154 -51 8 22 17 70 20 106 4 46 16 86 41 137 59 121 151 183 296 199 74
8 109 35 109 83 0 39 -35 66 -97 75 -102 13 -174 47 -239 111 -72 71 -101 137
-116 260 -11 98 -30 129 -81 133 -28 2 -42 -3 -62 -22z"/>
<path d="M7587 8310 c-109 -17 -198 -51 -286 -107 -57 -37 -150 -128 -435
-428 -697 -735 -737 -775 -768 -775 -41 0 -282 -65 -388 -105 -196 -74 -352
-177 -494 -326 -50 -53 -107 -122 -126 -152 -19 -31 -37 -56 -40 -56 -3 0 -25
30 -50 67 -188 280 -583 503 -1030 582 -159 28 -439 37 -606 21 -238 -25 -442
-76 -660 -167 -78 -32 -145 -54 -168 -54 -48 0 -94 -20 -128 -56 -37 -40 -48
-75 -48 -155 l0 -69 -42 0 c-52 0 -157 -36 -217 -74 -63 -40 -133 -117 -169
-185 -66 -122 -62 -6 -62 -1852 0 -1073 4 -1696 10 -1730 25 -137 140 -291
266 -357 122 -64 84 -62 1226 -62 l1036 0 46 -64 c91 -128 216 -224 371 -287
32 -13 117 -30 157 -31 22 -1 39 -7 43 -16 4 -11 8 -12 20 -2 18 15 86 21 101
9 8 -6 14 -4 18 6 3 9 14 15 23 14 10 0 21 0 26 1 4 1 10 3 15 5 4 1 16 5 27
10 11 4 55 21 97 38 114 44 232 148 311 274 l27 42 1062 3 1063 3 60 24 c170
68 284 196 331 373 12 45 14 324 14 1738 0 1844 3 1740 -58 1854 -15 28 -58
83 -97 122 -81 82 -151 119 -267 142 l-79 15 44 46 c530 554 547 575 603 711
55 135 67 338 29 485 -60 234 -269 447 -501 509 -73 20 -230 28 -307 16z m218
-295 c124 -33 230 -120 283 -232 25 -53 27 -68 27 -183 0 -119 -1 -128 -31
-190 -33 -70 -75 -124 -142 -184 l-42 -39 -49 46 -48 45 67 65 c67 64 97 117
87 154 -3 13 -5 12 -6 -5 -1 -32 -40 -85 -57 -78 -7 3 -11 0 -8 -7 2 -7 -18
-34 -45 -61 l-50 -50 -93 95 c-51 52 -138 135 -193 184 -164 148 -215 198
-215 208 0 20 115 140 166 174 103 68 228 89 349 58z m-387 -762 c155 -151
282 -281 282 -287 0 -6 -45 -56 -100 -111 l-99 -99 -78 74 c-43 41 -150 145
-238 230 -88 86 -194 188 -235 228 l-75 71 104 105 104 105 26 -20 c14 -11
153 -144 309 -296z m-507 -330 c115 -114 208 -210 207 -214 -4 -11 -431 -451
-758 -782 -145 -147 -267 -272 -270 -276 -3 -5 -131 -138 -284 -296 l-279
-286 -41 7 c-23 4 -49 8 -58 8 -12 0 -18 13 -23 43 -21 141 -143 257 -301 286
l-63 12 297 311 c579 606 1344 1394 1354 1394 5 0 104 -93 219 -207z m-2933
-227 c369 -81 665 -254 821 -481 97 -141 96 -137 96 -340 l0 -181 -36 -42
c-68 -80 -94 -147 -204 -537 -59 -209 -142 -504 -185 -655 -108 -378 -112
-394 -101 -423 19 -49 71 -49 183 -1 164 70 330 136 333 132 8 -7 17 -1143 10
-1160 -6 -15 -22 -4 -92 61 -247 231 -591 369 -1006 403 -243 19 -552 -14
-805 -86 -123 -36 -262 -87 -300 -112 -18 -12 -23 -12 -27 -2 -3 7 -4 738 -3
1623 l3 1610 70 37 c129 68 417 153 620 182 17 2 136 3 265 1 212 -2 247 -5
358 -29z m1481 -394 c-123 -126 -226 -228 -228 -226 -6 5 61 118 105 174 68
89 153 165 248 224 49 31 91 56 94 56 2 0 -96 -103 -219 -228z m-3097 -1724
l3 -1651 49 -31 c75 -45 114 -41 271 32 237 109 509 194 708 221 113 16 385
13 497 -4 333 -51 638 -205 800 -404 19 -24 47 -57 62 -74 14 -17 25 -35 22
-38 -2 -4 1 -11 7 -15 8 -5 9 -3 4 6 -4 7 6 2 24 -11 17 -12 31 -27 31 -31 0
-5 4 -6 10 -3 6 3 10 1 10 -4 0 -6 -7 -11 -15 -11 -8 0 -15 5 -15 12 0 9 -3 9
-12 0 -16 -16 -36 -15 -34 1 0 6 -3 12 -9 12 -5 0 -9 -8 -8 -17 2 -11 -4 -18
-13 -18 -8 0 -13 -4 -10 -9 7 -11 -34 -2 -51 12 -9 6 -13 6 -13 -2 0 -6 -7
-11 -15 -11 -8 0 -15 4 -15 8 0 4 -14 16 -31 26 -18 11 -29 14 -25 8 3 -6 -13
-1 -36 11 l-43 22 -1085 -5 c-616 -3 -1098 -1 -1115 4 -41 12 -93 62 -116 111
-18 38 -19 104 -19 1685 0 1581 1 1647 19 1685 26 55 114 132 153 135 5 0 9
-743 10 -1652z m5048 148 l0 -1465 -72 34 c-530 243 -1239 240 -1733 -7 -145
-72 -219 -125 -314 -222 -46 -47 -86 -86 -89 -86 -8 0 7 1323 16 1331 4 4 32
16 62 27 70 27 199 79 225 92 11 6 83 37 160 70 149 63 167 76 299 220 60 67
244 256 534 553 91 92 171 167 179 167 51 0 291 -46 399 -76 76 -22 124 4 139
74 8 39 -22 95 -65 117 -22 12 -151 42 -260 62 -14 3 -31 7 -39 9 -8 3 25 43
90 109 57 57 105 102 108 100 2 -3 9 5 15 17 10 19 18 22 63 19 77 -4 101 26
93 116 -1 13 5 29 12 37 7 7 44 48 83 90 38 42 75 76 82 76 10 0 12 -299 13
-1464z m-2333 388 c53 -44 75 -92 82 -187 l6 -81 100 -17 c55 -9 119 -26 143
-38 40 -20 86 -75 79 -95 -4 -13 -542 -256 -567 -256 -4 0 -13 14 -20 31 -12
28 -92 101 -122 111 -10 4 -3 39 26 139 21 74 53 188 71 254 53 189 46 178
110 173 42 -4 64 -12 92 -34z m1469 -1961 c-4 -5 -28 -8 -53 -8 -32 0 -48 -6
-54 -18 -6 -9 -22 -18 -37 -18 l-27 -1 30 -8 c17 -4 22 -8 13 -9 -10 0 -20 0
-21 2 -2 1 -11 -4 -20 -12 -10 -8 -24 -10 -34 -6 -30 13 -53 15 -53 5 0 -6 7
-10 15 -10 8 0 15 -5 15 -11 0 -6 -12 -10 -27 -9 -46 3 -51 1 -57 -25 -6 -24
-26 -36 -26 -15 0 6 5 10 10 10 6 0 10 8 10 18 -1 16 -2 16 -15 -2 -7 -10 -18
-15 -24 -12 -6 4 -13 -5 -17 -19 -5 -19 -11 -24 -28 -19 -29 7 -73 -17 -70
-39 1 -9 -2 -17 -7 -17 -5 0 -9 7 -9 15 0 8 -9 19 -20 25 -17 9 -20 8 -20 -9
0 -11 -5 -23 -10 -26 -6 -4 -8 -11 -5 -16 4 -5 1 -9 -4 -9 -6 0 -11 -4 -11
-10 0 -21 29 3 39 32 6 17 13 29 16 27 8 -8 -15 -79 -26 -79 -6 0 -7 -5 -3
-11 5 -8 1 -8 -14 0 -15 8 -23 8 -28 -1 -5 -7 -3 -8 6 -3 9 5 11 4 6 -4 -5 -8
-12 -9 -19 -3 -7 5 -25 7 -40 5 -18 -2 -26 0 -22 7 3 5 16 10 28 10 16 0 23 6
24 22 1 13 -1 18 -5 12 -10 -16 -51 -36 -61 -30 -4 3 -8 -1 -8 -9 0 -8 4 -15
9 -15 5 0 4 -9 -2 -20 -6 -11 -15 -18 -20 -15 -5 3 -12 0 -16 -6 -5 -9 -11 -7
-21 6 -12 17 -13 17 -13 -11 0 -19 3 -25 9 -16 6 10 13 9 32 -7 l24 -19 -45 5
c-32 3 -41 1 -30 -6 8 -5 19 -7 25 -4 5 3 0 -4 -12 -16 -27 -26 -32 -26 -31
-3 0 9 -3 26 -7 36 -6 13 -5 17 3 12 6 -3 13 -2 16 3 4 5 2 12 -4 16 -6 4 -7
12 -4 18 5 9 3 9 -6 0 -7 -7 -13 -25 -13 -42 0 -21 -5 -28 -16 -26 -9 1 -15 8
-13 15 1 6 -2 9 -8 5 -6 -3 -7 -11 -4 -17 5 -8 1 -9 -10 -5 -12 5 -19 0 -26
-16 -9 -22 -9 -22 -11 3 -1 18 -3 20 -6 7 -2 -9 -9 -15 -14 -12 -5 4 -9 -1 -9
-9 0 -8 6 -16 14 -18 13 -3 13 -6 0 -22 -14 -20 -14 -20 -14 0 0 10 -9 25 -21
32 -12 8 -18 9 -15 3 4 -6 -4 -13 -19 -17 -26 -6 -35 -24 -12 -24 7 0 13 -10
14 -21 l2 -22 -15 22 c-8 11 -22 21 -30 21 -8 0 -14 5 -14 11 0 6 -7 8 -17 5
-9 -4 -20 -1 -24 6 -4 7 -12 9 -16 4 -4 -5 -2 -11 5 -13 21 -8 15 -60 -8 -66
-21 -5 -29 16 -10 28 6 3 10 11 10 17 0 13 -29 -17 -46 -47 -7 -13 -24 -21
-47 -22 -29 -3 -37 1 -43 19 -4 15 -1 25 11 34 9 7 14 17 10 23 -3 6 29 48 72
92 78 82 186 160 302 219 82 41 220 92 232 84 5 -3 9 -1 9 4 0 12 111 40 227
57 96 14 341 20 329 8z m-146 -101 c0 -5 -7 -17 -16 -28 -8 -10 -14 -14 -11
-9 2 6 7 18 10 28 7 17 17 23 17 9z m-126 -30 c3 -5 -1 -9 -9 -9 -8 0 -12 4
-9 9 3 4 7 8 9 8 2 0 6 -4 9 -8z m79 -7 c-3 -9 -8 -14 -10 -11 -3 3 -2 9 2 15
9 16 15 13 8 -4z m-152 -22 c13 -16 12 -17 -3 -4 -10 7 -18 15 -18 17 0 8 8 3
21 -13z m169 -13 c0 -5 -2 -10 -4 -10 -3 0 -8 5 -11 10 -3 6 -1 10 4 10 6 0
11 -4 11 -10z m-190 -20 c-24 -15 -36 -11 -14 4 10 8 21 12 24 10 2 -3 -2 -9
-10 -14z m-70 -9 c0 -6 -4 -13 -10 -16 -5 -3 -10 1 -10 9 0 9 5 16 10 16 6 0
10 -4 10 -9z m217 -7 c-3 -3 -12 -4 -19 -1 -8 3 -5 6 6 6 11 1 17 -2 13 -5z
m-170 -18 c0 -8 -3 -15 -6 -14 -20 2 -30 -4 -34 -19 -4 -15 -5 -14 -6 3 -1 13
8 25 22 32 12 6 22 11 23 11 0 1 1 -5 1 -13z m-92 -27 c-3 -12 -7 -24 -10 -27
-3 -3 -3 5 -1 19 6 30 5 29 10 29 3 0 3 -10 1 -21z m22 -11 c-3 -7 -5 -2 -5
12 0 14 2 19 5 13 2 -7 2 -19 0 -25z m84 -11 c-10 -9 -11 -8 -5 6 3 10 9 15
12 12 3 -3 0 -11 -7 -18z m-126 -17 c3 -5 1 -10 -4 -10 -6 0 -11 5 -11 10 0 6
2 10 4 10 3 0 8 -4 11 -10z m105 6 c0 -2 -7 -9 -15 -16 -13 -11 -14 -10 -9 4
5 14 24 23 24 12z m-194 -15 c-4 -5 0 -12 6 -14 8 -4 4 -8 -9 -12 -13 -4 -23
-12 -23 -18 0 -7 -4 -7 -12 1 -9 9 -6 16 12 32 25 21 35 26 26 11z m64 -11 c0
-5 -4 -10 -10 -10 -5 0 -10 5 -10 10 0 6 5 10 10 10 6 0 10 -4 10 -10z m-30
-25 c0 -8 -4 -15 -10 -15 -5 0 -7 7 -4 15 4 8 8 15 10 15 2 0 4 -7 4 -15z
m-90 -23 c-7 -3 -19 3 -28 13 -16 15 -15 16 12 4 15 -7 23 -15 16 -17z m60 8
c0 -5 -5 -10 -11 -10 -5 0 -7 5 -4 10 3 6 8 10 11 10 2 0 4 -4 4 -10z m30 -30
c0 -5 -4 -10 -10 -10 -5 0 -10 5 -10 10 0 6 5 10 10 10 6 0 10 -4 10 -10z
m-215 -30 c3 -5 3 -10 -2 -11 -4 0 -20 -2 -35 -4 -16 -2 -28 0 -28 5 0 18 55
27 65 10z m-137 -85 c-3 -3 -9 2 -12 12 -6 14 -5 15 5 6 7 -7 10 -15 7 -18z
m-88 -5 c0 -5 -4 -10 -10 -10 -5 0 -10 5 -10 10 0 6 5 10 10 10 6 0 10 -4 10
-10z m75 -20 c-3 -5 -12 -10 -18 -10 -7 0 -6 4 3 10 19 12 23 12 15 0z m-105
-16 c0 -2 -9 -4 -21 -4 -11 0 -18 4 -14 10 5 8 35 3 35 -6z m-170 -3 c0 -6 -9
-9 -19 -8 -11 0 -17 5 -15 9 7 11 34 10 34 -1z m140 -21 c0 -5 -2 -10 -4 -10
-3 0 -8 5 -11 10 -3 6 -1 10 4 10 6 0 11 -4 11 -10z m-200 -10 c12 -8 11 -10
-7 -10 -13 0 -23 5 -23 10 0 13 11 13 30 0z m152 -12 c-7 -7 -12 -8 -12 -2 0
14 12 26 19 19 2 -3 -1 -11 -7 -17z m-302 -5 c-14 -3 -29 -9 -34 -13 -5 -5
-18 -4 -29 2 -12 6 -49 9 -86 6 -36 -3 -79 -2 -96 2 -16 4 38 8 120 7 83 0
139 -2 125 -4z m100 3 c0 -9 -40 -13 -46 -5 -3 5 6 9 20 9 14 0 26 -2 26 -4z
m240 -6 c0 -5 -5 -10 -11 -10 -5 0 -7 5 -4 10 3 6 8 10 11 10 2 0 4 -4 4 -10z
m-642 -17 c-10 -2 -28 -2 -40 0 -13 2 -5 4 17 4 22 1 32 -1 23 -4z m140 -8 c1
-1 -20 -5 -48 -9 -27 -4 -50 -11 -50 -17 0 -6 -4 -7 -10 -4 -5 3 -10 1 -10 -5
0 -7 -7 -5 -16 4 -18 19 -26 20 -41 5 -8 -8 -13 -7 -18 2 -5 8 -4 10 3 5 7 -4
12 -2 12 3 0 14 37 14 45 1 8 -13 35 -1 35 17 0 11 9 13 48 7 26 -3 48 -8 50
-9z m-238 -25 c0 -5 -2 -10 -4 -10 -3 0 -8 5 -11 10 -3 6 -1 10 4 10 6 0 11
-4 11 -10z"/>
<path d="M2919 4301 c13 -12 31 -21 40 -21 14 0 6 6 -51 35 -7 4 -2 -3 11 -14z"/>
<path d="M6684 5085 c-111 -46 -89 -174 32 -190 121 -15 193 -29 292 -55 l107
-28 41 29 c62 43 72 87 29 138 -31 36 -79 52 -255 85 -180 33 -211 36 -246 21z"/>
<path d="M6424 4581 c-62 -27 -82 -109 -40 -157 19 -23 34 -29 84 -34 34 -3
71 -2 82 2 19 7 87 59 145 111 11 10 32 26 48 35 15 9 27 19 27 23 0 16 -313
34 -346 20z"/>
<path d="M7084 4485 c15 -8 37 -15 47 -15 10 0 21 -5 25 -12 5 -8 -5 -9 -39
-5 -26 4 -47 3 -47 -1 0 -4 -3 -17 -6 -29 -5 -19 -2 -23 15 -23 21 0 25 -11
24 -65 -1 -31 -2 -35 -14 -35 -5 0 -8 3 -6 8 3 4 -7 7 -21 8 -15 0 -45 4 -67
7 -23 5 -8 -3 35 -18 41 -13 85 -25 96 -25 31 0 77 39 71 61 -3 10 0 20 6 22
15 5 -8 65 -35 94 -12 13 -29 23 -39 23 -10 0 -21 5 -24 10 -3 6 -16 10 -28
10 -20 0 -19 -2 7 -15z m106 -79 c0 -6 -7 -1 -15 10 -8 10 -15 23 -15 28 0 6
7 1 15 -10 8 -10 15 -23 15 -28z m-53 -80 c-10 -26 -25 -18 -19 10 3 17 8 22
15 15 5 -5 7 -17 4 -25z m17 -21 c-25 -19 -40 -19 -24 0 7 8 20 15 28 15 13 0
12 -3 -4 -15z"/>
<path d="M7005 4460 c-3 -5 -1 -10 4 -10 6 0 11 5 11 10 0 6 -2 10 -4 10 -3 0
-8 -4 -11 -10z"/>
<path d="M7115 3880 c3 -5 11 -10 16 -10 6 0 7 5 4 10 -3 6 -11 10 -16 10 -6
0 -7 -4 -4 -10z"/>
<path d="M7110 3853 c0 -15 19 -37 26 -31 3 4 -1 14 -10 23 -9 9 -16 13 -16 8z"/>
<path d="M7143 3846 c14 -14 21 -16 30 -7 8 8 8 11 0 11 -6 0 -20 3 -30 7 -17
7 -17 6 0 -11z"/>
<path d="M7194 3811 c2 -13 -2 -34 -10 -46 -8 -13 -13 -29 -12 -36 2 -8 -3
-13 -9 -11 -7 1 -13 -2 -13 -6 0 -10 -30 -9 -48 2 -7 4 -12 1 -12 -8 0 -12 10
-16 35 -16 64 0 109 81 74 130 -9 12 -10 10 -5 -9z"/>
<path d="M7090 3790 c0 -16 5 -30 10 -30 6 0 10 14 10 30 0 17 -4 30 -10 30
-5 0 -10 -13 -10 -30z"/>
<path d="M7131 3811 c-8 -5 -9 -11 -3 -15 5 -3 15 1 22 9 14 16 3 20 -19 6z"/>
<path d="M7031 3729 c-1 -10 9 -19 24 -21 14 -3 25 -1 25 3 0 5 -9 9 -19 9
-11 0 -22 6 -24 13 -4 7 -6 6 -6 -4z"/>
<path d="M6280 3108 c0 -5 11 -8 25 -8 14 0 25 4 25 9 0 5 -11 8 -25 7 -14 0
-25 -4 -25 -8z"/>
<path d="M6060 3010 c6 -11 13 -20 16 -20 2 0 0 9 -6 20 -6 11 -13 20 -16 20
-2 0 0 -9 6 -20z"/>
<path d="M6142 3006 c7 -8 15 -12 17 -11 5 6 -10 25 -20 25 -5 0 -4 -6 3 -14z"/>
<path d="M5971 2944 c0 -11 3 -14 6 -6 3 7 2 16 -1 19 -3 4 -6 -2 -5 -13z"/>
<path d="M5408 2723 c7 -3 16 -2 19 1 4 3 -2 6 -13 5 -11 0 -14 -3 -6 -6z"/>
<path d="M5406 2702 c-2 -4 4 -8 14 -8 10 0 16 4 14 8 -3 4 -9 8 -14 8 -5 0
-11 -4 -14 -8z"/>
<path d="M5390 2661 c-10 -15 -16 -17 -22 -8 -5 8 -8 7 -8 -4 0 -17 58 -34 71
-20 13 13 20 51 10 51 -6 0 -11 -9 -11 -20 0 -26 -18 -26 -22 1 l-3 20 -15
-20z"/>
<path d="M3979 8001 l-29 -29 0 -202 c0 -219 5 -246 55 -268 47 -22 84 -15
121 22 l34 34 0 196 c0 250 -11 276 -110 276 -33 0 -48 -6 -71 -29z"/>
<path d="M5998 8001 l-33 -29 -3 -199 c-3 -170 -1 -202 13 -229 41 -76 158
-72 197 6 15 29 18 64 18 215 0 162 -2 183 -20 213 -37 60 -119 71 -172 23z"/>
<path d="M3222 7937 c-14 -6 -26 -24 -32 -49 -6 -21 -15 -57 -21 -80 -16 -61
-62 -103 -129 -117 -30 -6 -62 -19 -72 -28 -38 -34 -12 -93 40 -93 45 0 94
-18 123 -46 24 -23 36 -54 53 -136 8 -36 32 -58 65 -58 38 0 57 25 66 85 13
93 64 142 162 153 51 5 76 30 71 69 -2 23 -10 30 -43 40 -126 36 -129 38 -158
79 -18 26 -31 60 -36 97 -11 79 -39 106 -89 84z"/>
<path d="M5290 1889 c0 -5 5 -7 10 -4 6 3 10 8 10 11 0 2 -4 4 -10 4 -5 0 -10
-5 -10 -11z"/>
<path d="M5311 1878 c-11 -18 -11 -18 14 -2 29 19 30 21 11 21 -7 0 -19 -9
-25 -19z"/>
<path d="M5395 1880 c10 -11 20 -20 23 -20 3 0 -3 9 -13 20 -10 11 -20 20 -23
20 -3 0 3 -9 13 -20z"/>
<path d="M5460 1890 c-9 -6 -10 -10 -3 -10 6 0 15 5 18 10 8 12 4 12 -15 0z"/>
<path d="M5940 1883 c0 -15 18 -35 23 -27 3 5 -1 15 -9 22 -8 7 -14 9 -14 5z"/>
<path d="M5500 1873 c0 -15 29 -49 30 -35 0 7 -7 20 -15 28 -8 9 -15 11 -15 7z"/>
<path d="M5585 1870 c11 -19 15 -70 4 -70 -6 0 -7 5 -4 10 3 6 2 10 -3 10 -6
0 -9 7 -8 16 0 9 -5 19 -13 22 -9 3 -12 0 -9 -10 10 -25 -6 -40 -35 -33 -15 4
-24 11 -21 16 3 5 1 9 -5 9 -5 0 -12 -8 -15 -18 -6 -18 -36 -27 -36 -10 0 4 5
8 10 8 6 0 10 5 10 11 0 5 -4 7 -10 4 -5 -3 -10 -2 -10 2 0 16 -40 9 -41 -7 0
-10 -3 -9 -8 5 -5 11 -6 24 -3 29 3 5 0 6 -7 2 -7 -5 -9 -17 -5 -29 6 -22 6
-22 -11 -2 -9 11 -14 14 -10 7 7 -13 -20 -12 -56 3 -10 4 -19 0 -22 -9 -4 -9
-12 -16 -19 -16 -9 0 -8 3 2 10 8 5 10 10 5 10 -6 0 -16 -5 -23 -12 -9 -9 -12
-9 -12 0 0 7 -6 12 -14 12 -10 0 -12 -7 -9 -22 6 -22 6 -22 -15 2 -12 14 -20
18 -17 9 4 -10 0 -16 -9 -16 -8 0 -13 4 -10 9 3 4 -1 6 -8 4 -50 -16 -70 -17
-65 -2 3 8 0 20 -8 26 -11 9 -12 7 -8 -9 5 -20 -7 -26 -44 -22 -6 1 -15 -4
-19 -10 -5 -8 -13 -4 -26 12 l-18 24 -20 -23 c-15 -18 -23 -21 -38 -13 -13 7
-22 7 -30 -1 -12 -12 -42 -20 -42 -11 0 2 5 13 10 24 10 18 10 18 -24 1 -18
-9 -32 -20 -29 -24 5 -10 -10 -10 -31 -2 -9 3 -13 10 -10 15 3 5 0 9 -6 9 -7
0 -10 -7 -6 -15 3 -8 1 -15 -3 -15 -5 0 -7 -10 -5 -22 2 -13 2 -17 -2 -10 -11
23 -44 35 -60 21 -8 -7 -14 -8 -13 -3 4 23 -2 45 -11 39 -6 -4 -8 -11 -5 -16
3 -5 -1 -6 -9 -3 -20 8 -20 0 0 -20 13 -14 13 -16 0 -16 -17 0 -31 34 -20 51
4 8 3 9 -5 5 -6 -4 -20 -2 -29 6 -15 12 -16 11 -3 -5 8 -9 11 -21 7 -24 -4 -4
-11 -1 -16 7 -8 12 -10 13 -10 1 0 -11 -4 -10 -19 3 -16 15 -22 15 -40 4 -24
-15 -26 -24 -8 -31 11 -5 -17 -11 -35 -8 -5 0 -8 -4 -8 -9 0 -6 5 -10 11 -10
5 0 7 -5 3 -11 -5 -8 -10 -6 -16 6 -8 13 -3 25 23 51 21 22 41 33 51 30 10 -2
21 0 24 5 3 5 -9 9 -25 9 -17 0 -31 -4 -31 -10 0 -5 -9 -10 -21 -10 -11 0 -17
-4 -14 -10 3 -5 -1 -10 -9 -10 -9 0 -16 -4 -16 -10 0 -5 -9 -14 -20 -20 -17
-9 -20 -8 -17 9 2 11 7 24 12 28 4 5 5 2 1 -4 -4 -7 -2 -13 3 -13 6 0 11 6 11
14 0 17 -28 41 -37 32 -3 -3 0 -6 7 -6 9 0 5 -8 -10 -22 -14 -13 -19 -23 -12
-26 8 -2 7 -8 -4 -19 -8 -9 -13 -22 -10 -29 3 -7 1 -16 -3 -19 -5 -2 -7 18 -4
45 3 34 1 50 -7 50 -6 0 -9 -4 -5 -9 3 -5 1 -12 -5 -16 -5 -3 -10 3 -10 14 0
12 -4 21 -10 21 -5 0 -9 -10 -7 -22 1 -17 -3 -22 -16 -20 -10 2 -25 -2 -33 -9
-18 -15 -23 -10 -26 24 -1 15 -6 27 -11 27 -5 0 -6 -9 -2 -19 8 -27 -15 -38
-32 -16 -10 15 -10 21 0 28 9 6 8 7 -3 4 -10 -3 -14 -14 -12 -31 1 -14 -2 -26
-8 -26 -6 0 -8 5 -5 10 4 6 2 17 -5 25 -8 9 -8 15 0 20 17 11 1 25 -28 25 -19
0 -23 -3 -13 -9 11 -7 11 -9 0 -14 -9 -3 -10 -6 -2 -6 6 -1 15 4 18 9 3 6 11
10 18 10 8 0 8 -3 0 -11 -6 -6 -9 -18 -6 -25 3 -8 0 -21 -7 -29 -7 -9 -13 -29
-12 -45 0 -17 -4 -30 -10 -30 -6 0 -8 12 -5 29 4 21 1 34 -13 46 -21 19 -28
41 -10 30 6 -3 10 1 10 10 0 14 -4 13 -30 -5 -27 -19 -35 -19 -31 3 2 11 -24
8 -37 -5 -9 -9 -12 -9 -12 -1 0 8 -9 9 -29 3 -21 -6 -31 -5 -34 3 -2 8 -9 6
-21 -5 -16 -16 -15 -17 14 -13 16 2 30 -1 30 -6 0 -5 -6 -9 -13 -9 -8 0 -22
-9 -32 -20 -17 -19 -19 -19 -35 -3 -10 10 -15 23 -12 28 3 6 -1 4 -9 -2 -18
-17 -39 -16 -39 2 0 11 -5 12 -26 5 -17 -7 -23 -7 -19 1 4 6 -2 5 -13 -2 -24
-15 -20 -29 7 -24 11 2 22 -3 25 -12 9 -23 1 -27 -33 -15 -23 8 -33 7 -48 -5
-17 -14 -17 -14 0 -9 11 3 16 2 12 -4 -3 -6 -19 -10 -34 -10 -27 0 -28 2 -25
40 2 22 6 45 10 52 4 7 3 8 -4 4 -7 -4 -12 -14 -12 -23 0 -13 -3 -13 -15 -3
-9 7 -15 8 -15 2 0 -5 7 -12 15 -16 8 -3 15 -10 15 -16 0 -6 -6 -8 -12 -4 -9
5 -9 2 1 -9 9 -11 10 -17 2 -17 -6 0 -11 -4 -11 -9 0 -4 91 -11 203 -15 111
-4 235 -9 275 -11 54 -2 72 0 72 10 0 9 10 12 33 8 17 -3 34 -7 37 -10 3 -3
-7 -3 -23 -1 -15 3 -30 2 -32 -2 -3 -4 73 -11 168 -14 205 -9 1131 -10 1337
-2 80 3 269 11 420 16 413 15 494 21 502 34 6 8 8 8 8 -1 0 -8 10 -11 28 -8
15 2 75 6 134 9 131 7 479 36 493 41 6 2 -36 2 -92 0 -73 -3 -103 -1 -107 8
-5 9 -7 9 -12 0 -4 -8 -10 -7 -24 4 -10 9 -16 21 -13 26 3 6 1 7 -4 4 -6 -4
-14 0 -17 9 -8 21 -27 8 -19 -14 5 -14 3 -15 -8 -4 -16 15 -29 16 -29 1 0 -5
4 -7 10 -4 6 3 7 -1 4 -9 -8 -20 -24 -11 -24 14 0 16 -6 17 -42 13 -41 -5 -42
-5 -23 11 19 15 19 16 1 9 -12 -4 -17 -3 -13 4 4 6 -3 8 -18 5 -14 -2 -28 -9
-31 -14 -4 -6 3 -8 17 -4 23 7 23 6 5 -8 -13 -11 -23 -12 -31 -6 -7 5 -15 7
-18 3 -4 -3 -7 -1 -7 6 0 7 -5 9 -10 6 -6 -4 -8 -15 -5 -25 3 -10 1 -21 -4
-25 -7 -4 -8 1 -4 11 4 12 3 15 -5 10 -9 -5 -9 0 -2 19 13 34 13 35 -6 28 -8
-3 -13 -11 -11 -17 3 -7 -4 -12 -14 -12 -11 0 -19 6 -19 13 0 7 -4 13 -10 13
-5 0 -7 -7 -4 -15 4 -8 2 -15 -2 -16 -5 0 -17 -2 -27 -4 -15 -3 -16 -1 -6 11
9 11 7 14 -11 14 -16 0 -21 -4 -16 -16 5 -13 3 -14 -6 -7 -7 6 -24 9 -37 7
-21 -4 -22 -2 -11 11 11 13 11 16 -1 13 -8 -2 -17 -7 -20 -12 -8 -10 -29 1
-29 15 0 6 5 7 12 3 7 -4 8 -3 4 5 -10 16 -26 4 -26 -20 0 -10 -5 -19 -11 -19
-7 0 -9 9 -6 21 4 16 3 18 -9 8 -8 -6 -14 -8 -14 -5 0 4 -10 2 -21 -5 -15 -8
-19 -8 -15 0 4 6 0 11 -8 11 -8 0 -14 6 -12 13 1 6 1 8 -2 4 -2 -4 -10 -3 -18
4 -22 18 -16 4 11 -25 26 -28 32 -46 15 -46 -5 0 -9 3 -9 8 3 20 -2 33 -11 27
-6 -4 -8 -10 -5 -14 2 -5 -2 -17 -10 -27 -8 -10 -15 -14 -15 -9 0 6 5 16 11
22 7 7 2 14 -20 21 -29 10 -45 35 -18 28 6 -1 9 -1 4 1 -4 3 -4 10 -1 15 5 7
2 8 -7 2 -8 -4 -18 -9 -24 -10 -54 -10 -71 -31 -50 -64 8 -13 7 -13 -9 -1 -13
11 -20 11 -28 3 -15 -15 -28 -15 -28 -1 0 5 4 8 9 5 5 -3 13 0 19 7 8 10 1 13
-34 13 -24 1 -41 -2 -38 -7 8 -13 -34 -5 -48 9 -9 9 -6 12 14 12 14 0 32 8 39
18 11 14 11 15 -1 5 -19 -18 -33 -16 -26 2 3 8 1 15 -4 15 -6 0 -10 -6 -10
-14 0 -8 -7 -17 -16 -20 -24 -9 -29 -7 -16 6 17 17 15 49 -2 42 -8 -3 -12 -13
-10 -22 5 -15 4 -15 -9 1 -14 17 -16 17 -35 -8 -12 -16 -18 -33 -14 -47 5 -21
5 -21 -17 1 -16 16 -30 21 -47 17 -17 -5 -24 -2 -24 8 0 11 8 12 37 5 44 -9
44 -9 37 19 -5 19 -8 19 -21 7 -18 -19 -28 -19 -47 0 -20 21 -29 19 -23 -4 4
-17 2 -18 -20 -10 -31 12 -30 12 -37 -7 -5 -13 -1 -15 21 -10 23 5 25 4 10 -4
-13 -9 -15 -15 -7 -30 8 -15 6 -21 -9 -30 -25 -13 -42 -13 -18 1 9 5 17 17 17
25 0 8 -4 13 -9 10 -11 -7 -23 22 -15 35 3 5 0 17 -5 26 -10 17 -10 17 -11 0
0 -15 -3 -15 -20 -5 -15 10 -25 10 -37 2 -10 -6 -42 -10 -71 -9 -29 1 -48 -1
-41 -5 8 -6 8 -9 -2 -13 -12 -5 -12 -7 0 -15 10 -7 6 -9 -14 -9 -24 0 -26 3
-22 26 4 20 0 30 -15 40 -12 7 -17 8 -13 1z m213 -32 c-2 -7 3 -12 10 -10 8 1
11 -2 8 -6 -7 -11 -56 -3 -56 8 0 8 16 18 33 19 4 1 6 -5 5 -11z m256 -20 c-3
-4 -13 -8 -22 -8 -15 0 -15 2 -2 10 8 5 11 10 7 10 -5 0 -5 5 -1 11 4 8 9 7
15 -2 4 -7 5 -17 3 -21z m-373 -5 c-12 -20 -14 -14 -5 12 4 9 9 14 11 11 3 -2
0 -13 -6 -23z m620 4 c-10 -9 -11 -8 -5 6 3 10 9 15 12 12 3 -3 0 -11 -7 -18z
m-576 3 c3 -5 2 -10 -4 -10 -5 0 -13 5 -16 10 -3 6 -2 10 4 10 5 0 13 -4 16
-10z m555 -10 c0 -5 -5 -10 -11 -10 -5 0 -7 5 -4 10 3 6 8 10 11 10 2 0 4 -4
4 -10z m-1380 -20 c0 -4 -6 -10 -14 -13 -10 -4 -12 0 -9 14 5 18 23 18 23 -1z
m360 12 c0 -5 -7 -9 -15 -9 -8 0 -12 4 -9 9 3 4 9 8 15 8 5 0 9 -4 9 -8z m445
-2 c3 -5 1 -10 -4 -10 -6 0 -11 5 -11 10 0 6 2 10 4 10 3 0 8 -4 11 -10z m62
-12 c-3 -8 -6 -5 -6 6 -1 11 2 17 5 13 3 -3 4 -12 1 -19z m327 6 c19 -19 20
-24 3 -24 -7 0 -18 9 -25 20 -15 24 0 27 22 4z m359 1 c-3 -9 -8 -14 -10 -11
-3 3 -2 9 2 15 9 16 15 13 8 -4z m-2456 -17 c-3 -8 -6 -5 -6 6 -1 11 2 17 5
13 3 -3 4 -12 1 -19z m1567 13 c3 -5 -1 -11 -9 -14 -9 -4 -12 -1 -8 9 6 16 10
17 17 5z m386 -1 c12 -8 11 -10 -7 -10 -13 0 -23 5 -23 10 0 13 11 13 30 0z
m95 0 c3 -5 -1 -10 -10 -10 -9 0 -13 5 -10 10 3 6 8 10 10 10 2 0 7 -4 10 -10z
m311 -6 c-3 -9 -6 -18 -6 -20 0 -2 -4 -4 -9 -4 -5 0 -7 9 -4 20 3 11 10 20 15
20 6 0 7 -7 4 -16z m157 1 c-3 -9 -8 -14 -10 -11 -3 3 -2 9 2 15 9 16 15 13 8
-4z m-2553 -5 c0 -5 -9 -18 -21 -29 -13 -12 -17 -21 -10 -26 14 -8 31 2 31 20
0 8 4 16 9 19 5 4 7 -4 3 -16 -6 -25 -37 -58 -54 -58 -9 0 -9 3 0 12 8 8 8 15
1 24 -8 10 -7 18 5 29 9 9 16 21 16 26 0 5 5 9 10 9 6 0 10 -4 10 -10z m570
-11 c0 -5 -7 -9 -15 -9 -9 0 -12 6 -9 15 6 15 24 11 24 -6z m225 12 c3 -5 1
-12 -5 -16 -5 -3 -10 1 -10 9 0 18 6 21 15 7z m572 -13 c-3 -8 -6 -5 -6 6 -1
11 2 17 5 13 3 -3 4 -12 1 -19z m965 15 c-6 -2 -10 -9 -7 -13 3 -5 1 -11 -4
-14 -7 -5 -8 11 -2 32 1 1 7 2 14 1 9 0 9 -2 -1 -6z m428 3 c0 -2 -7 -7 -16
-10 -8 -3 -12 -2 -9 4 6 10 25 14 25 6z m70 -6 c0 -5 -4 -10 -10 -10 -5 0 -10
5 -10 10 0 6 5 10 10 10 6 0 10 -4 10 -10z m87 -10 c-1 -20 -8 -25 -20 -14 -3
3 0 12 6 20 16 17 16 17 14 -6z m43 10 c0 -5 -7 -10 -15 -10 -8 0 -15 5 -15
10 0 6 7 10 15 10 8 0 15 -4 15 -10z m-2605 -10 c3 -5 -1 -10 -10 -10 -9 0
-13 5 -10 10 3 6 8 10 10 10 2 0 7 -4 10 -10z m273 1 c11 -6 10 -9 -5 -13 -10
-3 -24 1 -31 9 -10 10 -9 13 5 13 10 0 24 -4 31 -9z m211 -4 c8 -10 7 -14 -4
-14 -8 0 -15 6 -15 14 0 7 2 13 4 13 2 0 9 -6 15 -13z m1111 9 c0 -3 -4 -8
-10 -11 -5 -3 -10 -1 -10 4 0 6 5 11 10 11 6 0 10 -2 10 -4z m1101 -13 c12
-14 12 -16 -1 -11 -8 3 -25 1 -38 -3 -15 -6 -21 -5 -17 1 3 6 13 10 21 10 8 0
14 5 14 10 0 14 6 12 21 -7z m-3211 -36 c0 -4 -7 -2 -15 7 -8 8 -15 21 -15 28
1 14 30 -20 30 -35z m254 34 c-9 -9 -45 -11 -39 -2 3 6 14 9 25 8 10 -1 17 -3
14 -6z m223 -6 c0 -8 -7 -15 -15 -15 -12 0 -12 3 -2 15 7 8 13 15 15 15 1 0 2
-7 2 -15z m-396 -34 c8 14 9 12 9 -18 0 -5 -6 -8 -12 -9 -15 0 -58 44 -58 59
0 5 12 -3 26 -18 21 -23 28 -25 35 -14z m2944 32 c-11 -3 -23 -10 -27 -17 -5
-7 -8 -7 -8 0 0 16 11 24 34 23 20 -1 20 -1 1 -6z m-2445 -12 c0 -6 -4 -13
-10 -16 -5 -3 -10 1 -10 9 0 9 5 16 10 16 6 0 10 -4 10 -9z m280 -1 c0 -5 -4
-10 -10 -10 -5 0 -10 5 -10 10 0 6 5 10 10 10 6 0 10 -4 10 -10z m-627 -19
c-4 -15 1 -20 24 -24 15 -2 3 -4 -27 -4 -30 0 -48 3 -39 6 9 3 15 14 13 24 -1
11 4 17 16 17 13 0 17 -5 13 -19z m114 13 c-3 -3 -12 -4 -19 -1 -8 3 -5 6 6 6
11 1 17 -2 13 -5z m146 -20 c-14 -14 -27 -23 -30 -21 -7 8 30 47 44 47 7 0 1
-12 -14 -26z m2472 16 c3 -6 -1 -7 -9 -4 -18 7 -21 14 -7 14 6 0 13 -4 16 -10z
m-2978 -24 c3 -3 -13 -6 -36 -6 -23 0 -40 4 -37 9 6 10 63 8 73 -3z m348 -16
c3 -5 1 -10 -4 -10 -6 0 -11 5 -11 10 0 6 2 10 4 10 3 0 8 -4 11 -10z"/>
<path d="M5850 1870 c0 -5 5 -10 10 -10 6 0 10 5 10 10 0 6 -4 10 -10 10 -5 0
-10 -4 -10 -10z"/>
<path d="M6150 1869 c0 -5 5 -7 10 -4 6 3 10 8 10 11 0 2 -4 4 -10 4 -5 0 -10
-5 -10 -11z"/>
<path d="M6250 1876 c0 -2 7 -7 16 -10 8 -3 12 -2 9 4 -6 10 -25 14 -25 6z"/>
<path d="M5178 1853 c7 -3 16 -2 19 1 4 3 -2 6 -13 5 -11 0 -14 -3 -6 -6z"/>
<path d="M6555 1850 c3 -5 8 -10 11 -10 2 0 4 5 4 10 0 6 -5 10 -11 10 -5 0
-7 -4 -4 -10z"/>
<path d="M6587 1853 c-11 -10 -8 -45 2 -38 6 3 9 14 8 25 -1 23 -1 22 -10 13z"/>
<path d="M6677 1849 c7 -7 15 -10 18 -7 3 3 -2 9 -12 12 -14 6 -15 5 -6 -5z"/>
<path d="M4417 1829 c4 -13 8 -18 11 -10 2 7 -1 18 -6 23 -8 8 -9 4 -5 -13z"/>
<path d="M4736 1841 c-3 -4 14 -8 37 -10 23 -1 39 0 37 3 -9 8 -70 14 -74 7z"/>
<path d="M6185 1840 c3 -5 -2 -10 -11 -10 -22 0 -9 -13 15 -15 13 -1 17 4 13
17 -2 10 -9 18 -14 18 -5 0 -6 -4 -3 -10z"/>
<path d="M6227 1843 c-4 -3 -7 -11 -7 -17 0 -6 5 -5 12 2 6 6 9 14 7 17 -3 3
-9 2 -12 -2z"/>
<path d="M3667 1819 c-4 -16 -3 -18 9 -8 7 6 11 15 8 20 -8 13 -11 11 -17 -12z"/>
<path d="M3762 1815 c0 -16 2 -22 5 -12 2 9 2 23 0 30 -3 6 -5 -1 -5 -18z"/>
<path d="M4340 1829 c0 -5 5 -7 10 -4 6 3 10 8 10 11 0 2 -4 4 -10 4 -5 0 -10
-5 -10 -11z"/>
<path d="M4993 1825 c0 -8 4 -12 9 -9 4 3 8 9 8 15 0 5 -4 9 -8 9 -5 0 -9 -7
-9 -15z"/>
<path d="M5030 1829 c0 -5 5 -7 10 -4 6 3 10 8 10 11 0 2 -4 4 -10 4 -5 0 -10
-5 -10 -11z"/>
<path d="M3726 1814 c-3 -8 -9 -13 -13 -11 -5 3 -14 -1 -21 -9 -11 -12 -10
-14 5 -14 18 1 62 50 45 50 -6 0 -13 -7 -16 -16z"/>
<path d="M4698 1823 c-21 -5 -24 -23 -4 -23 8 0 16 7 20 15 3 8 4 14 3 14 -1
-1 -10 -3 -19 -6z"/>
<path d="M3606 1803 c-6 -14 -5 -15 5 -6 7 7 10 15 7 18 -3 3 -9 -2 -12 -12z"/>
<path d="M3803 1800 c1 -21 10 -18 13 5 1 8 -2 15 -6 15 -5 0 -8 -9 -7 -20z"/>
<path d="M3550 1781 c0 -10 19 -25 25 -20 1 2 -3 10 -11 17 -8 7 -14 8 -14 3z"/>
<path d="M4091 1781 c-8 -6 -9 -11 -3 -15 6 -3 14 -1 17 5 9 14 2 20 -14 10z"/>
<path d="M7558 1783 c7 -3 16 -2 19 1 4 3 -2 6 -13 5 -11 0 -14 -3 -6 -6z"/>
<path d="M3366 1772 c-3 -5 1 -9 9 -9 8 0 15 4 15 9 0 4 -4 8 -9 8 -6 0 -12
-4 -15 -8z"/>
<path d="M3650 1765 c0 -8 4 -15 10 -15 5 0 7 7 4 15 -4 8 -8 15 -10 15 -2 0
-4 -7 -4 -15z"/>
<path d="M7423 1773 c9 -2 25 -2 35 0 9 3 1 5 -18 5 -19 0 -27 -2 -17 -5z"/>
<path d="M2718 1763 c7 -3 16 -2 19 1 4 3 -2 6 -13 5 -11 0 -14 -3 -6 -6z"/>
<path d="M3520 1760 c-9 -6 -10 -10 -3 -10 6 0 15 5 18 10 8 12 4 12 -15 0z"/>
<path d="M2798 1753 c6 -2 18 -2 25 0 6 3 1 5 -13 5 -14 0 -19 -2 -12 -5z"/>
<path d="M3064 1752 c3 -6 0 -12 -6 -14 -7 -3 2 -5 20 -5 17 0 31 1 30 2 -15
12 -49 25 -44 17z"/>
<path d="M2918 1743 c7 -3 16 -2 19 1 4 3 -2 6 -13 5 -11 0 -14 -3 -6 -6z"/>
<path d="M3153 1723 c9 -2 25 -2 35 0 9 3 1 5 -18 5 -19 0 -27 -2 -17 -5z"/>
<path d="M3223 1723 c9 -2 23 -2 30 0 6 3 -1 5 -18 5 -16 0 -22 -2 -12 -5z"/>
<path d="M3462 1715 c-21 -11 -13 -13 60 -12 46 0 64 2 40 4 -23 2 -40 8 -37
14 4 5 1 9 -4 9 -6 0 -11 -4 -11 -10 0 -5 -7 -10 -16 -10 -8 0 -12 5 -9 10 7
12 7 12 -23 -5z"/>
<path d="M3353 1713 c9 -2 23 -2 30 0 6 3 -1 5 -18 5 -16 0 -22 -2 -12 -5z"/>
<path d="M3407 1709 c7 -7 15 -10 18 -7 3 3 -2 9 -12 12 -14 6 -15 5 -6 -5z"/>
</g>
</svg>
