<?xml version="1.0" encoding="iso-8859-1"?>
<!-- Generator: Adobe Illustrator 18.0.0, SVG Export Plug-In . SVG Version: 6.00 Build 0)  -->
<!DOCTYPE svg PUBLIC "-//W3C//DTD SVG 1.1//EN" "http://www.w3.org/Graphics/SVG/1.1/DTD/svg11.dtd">
<svg version="1.1" id="_x30_" xmlns="http://www.w3.org/2000/svg" xmlns:xlink="http://www.w3.org/1999/xlink" x="0px" y="0px"
	 viewBox="0 0 512 512" style="enable-background:new 0 0 512 512;" xml:space="preserve">
<g>
	<rect style="opacity:0;fill:#FFFFFF;" width="512" height="512"/>
	<path style="opacity:0.1;fill:#040000;" d="M512,262.605V512H220.416L86.528,378.112V252.569l0.103-0.102l79.155-79.156
		l14.438-14.438l0.205-0.205l4.557-4.506c1.741-0.563,3.738-0.922,5.223-0.922h3.174c-0.051-0.256-0.102-0.512-0.102-0.768
		c0-2.304,1.894-4.199,4.198-4.199c2.304,0,4.199,1.894,4.199,4.199c0,0.256-0.051,0.512-0.102,0.768h8.499
		c2.048,0,3.737-1.638,3.737-3.738v-24.217l4.301-4.301h76.339c1.28,0,2.406,0.666,3.072,1.638c0.153,0.307,0.358,0.615,0.461,0.973
		c0.154,0.358,0.205,0.768,0.205,1.126v3.738c0-0.256-0.051-0.512-0.051-0.768v21.811c0,2.099,1.689,3.738,3.738,3.738h8.55
		c0-0.103-0.051-0.256-0.051-0.358c0-0.103-0.051-0.307-0.051-0.409c0-1.178,0.461-2.202,1.229-2.919
		c0.358-0.409,0.819-0.716,1.28-0.921c0.512-0.205,1.024-0.359,1.638-0.359c0.614,0,1.126,0.154,1.639,0.359
		c0.512,0.205,0.921,0.512,1.331,0.921c0.768,0.717,1.229,1.741,1.229,2.919c0,0.154,0,0.256-0.051,0.409
		c0,0.154,0,0.256-0.051,0.358h3.174c2.048,0,5.273,0.717,7.117,1.536c0,0,0.256,0.103,0.563,0.308
		c0.154,0.102,0.358,0.307,0.563,0.461c0.205,0.153,0.41,0.461,0.614,0.717c0.307,0.409,0.614,0.921,0.819,1.536
		c0.051,0.358,0.154,0.716,0.205,1.075h76.647l17.203,17.203L512,262.605z"/>
	<g>
		<g>
			<g>
				<g>
					<g>
						<path style="fill:#E7D073;" d="M201.677,152.474c0,0.256-0.051,0.512-0.102,0.768c-0.358,1.946-2.048,3.431-4.096,3.431
							c-2.048,0-3.738-1.484-4.096-3.431c-0.051-0.256-0.102-0.512-0.102-0.768c0-2.304,1.894-4.199,4.198-4.199
							C199.783,148.275,201.677,150.169,201.677,152.474z"/>
						<path style="fill:#E7D073;" d="M318.669,152.474c0,0.154,0,0.256-0.051,0.409c0,0.154,0,0.256-0.051,0.358
							c-0.358,1.946-2.048,3.431-4.096,3.431c-2.048,0-3.686-1.484-4.045-3.431c0-0.103-0.051-0.256-0.051-0.358
							c0-0.103-0.051-0.307-0.051-0.409c0-1.178,0.461-2.202,1.229-2.919c0.666-0.767,1.741-1.28,2.918-1.28
							c1.178,0,2.253,0.513,2.969,1.28C318.208,150.272,318.669,151.296,318.669,152.474z"/>
					</g>
					<path style="fill:#734F33;" d="M331.674,159.437c0,3.431-2.816,4.711-2.816,4.711c-1.843,0.87-5.069,1.536-7.117,1.536h-32.256
						c-2.048,0-3.738-1.689-3.738-3.686v-24.883c0-1.024-0.409-1.946-1.075-2.663c-0.717-0.614-1.638-1.075-2.662-1.075h-52.07
						c-1.997,0-3.687,1.689-3.687,3.738v24.883c0,1.997-1.741,3.686-3.738,3.686h-32.307c-2.048,0-5.223-0.666-7.117-1.536
						c0,0-2.816-1.28-2.816-4.711c0-0.205,0-0.409,0.102-0.563c0-0.051,0-0.154,0.051-0.205c0.307-2.816,2.662-3.891,2.662-3.891
						c0.563-0.256,1.178-0.461,1.894-0.614c1.741-0.563,3.738-0.922,5.223-0.922h19.866c2.048,0,3.737-1.638,3.737-3.738v-24.781
						c0-0.512,0.103-1.024,0.307-1.434c0.103-0.256,0.205-0.461,0.359-0.666c0.154-0.205,0.256-0.358,0.461-0.512
						c0.666-0.717,1.587-1.126,2.611-1.126h76.902c1.28,0,2.406,0.666,3.072,1.638c0.153,0.307,0.358,0.615,0.461,0.973
						c0.102,0.358,0.154,0.768,0.154,1.126v24.781c0,2.099,1.689,3.738,3.738,3.738h19.866c2.048,0,5.273,0.717,7.117,1.536
						c0,0,0.256,0.103,0.563,0.308c0.154,0.102,0.358,0.307,0.563,0.461c0.205,0.153,0.41,0.461,0.614,0.717
						c0.307,0.409,0.614,0.921,0.819,1.536c0.051,0.358,0.154,0.716,0.205,1.075C331.674,159.027,331.674,159.232,331.674,159.437z"
						/>
				</g>
				<g>
					<path style="fill:#7D583D;" d="M298.189,124.723v3.738c0-0.256-0.051-0.512-0.051-0.768c-0.358-1.689-1.894-2.969-3.686-2.969
						h-76.902c-2.048,0-3.738,1.689-3.738,3.738v-3.738c0-0.512,0.103-1.024,0.307-1.434c0.103-0.256,0.205-0.461,0.359-0.666
						c0.154-0.205,0.256-0.358,0.461-0.512c0.666-0.717,1.587-1.126,2.611-1.126h76.902c1.28,0,2.406,0.666,3.072,1.638
						c0.153,0.307,0.358,0.615,0.461,0.973C298.138,123.955,298.189,124.365,298.189,124.723z"/>
				</g>
			</g>
			<path style="fill:#844C23;" d="M425.472,169.574v210.688c0,5.939-4.813,10.752-10.752,10.752H97.229
				c-5.888,0-10.701-4.813-10.701-10.752V169.574c0-5.888,4.813-10.701,10.701-10.701H414.72
				C420.659,158.874,425.472,163.686,425.472,169.574z"/>
			<path style="opacity:0.06;fill:#0F0F0F;" d="M425.421,184.064v81.613c0,5.888-4.762,10.701-10.701,10.701l-136.397,8.499
				l-16.742,1.075L256,286.31h-0.409l-5.12-0.307l-16.845-1.076l-136.346-8.55c-5.939,0-10.752-4.813-10.752-10.701v-81.613
				c0-5.939,4.813-10.752,10.752-10.752h317.44C420.659,173.312,425.421,178.125,425.421,184.064z"/>
			<path style="fill:#A05B28;" d="M425.472,169.574v81.613c0,0.358,0,0.716-0.051,1.075c-0.563,5.376-5.12,9.625-10.701,9.625
				l-136.397,8.5l-2.56,0.153l-0.819,0.051L256,271.769l-0.409,0.051l-19.2-1.229l-0.819-0.051l-1.946-0.102l-136.396-8.551
				c-5.427,0-9.984-4.147-10.599-9.42c-0.051-0.41-0.103-0.871-0.103-1.28v-81.613c0-5.888,4.813-10.701,10.701-10.701H414.72
				C420.659,158.874,425.472,163.686,425.472,169.574z"/>
			<path style="fill:#E7D073;" d="M278.335,249.779c0-5.291-4.329-9.621-9.621-9.621h-25.448c-5.291,0-9.621,4.329-9.621,9.621
				v20.793h44.689V249.779z"/>
			<path style="fill:#B4A566;" d="M233.646,270.572v25.758c0,5.291,4.329,9.621,9.621,9.621h25.448c5.291,0,9.621-4.329,9.621-9.621
				v-25.758H233.646z"/>
			<circle style="fill:#5A5B5B;" cx="255.99" cy="284.434" r="5.793"/>
			<polygon style="fill:#5A5B5B;" points="259.211,298.192 253.004,298.192 253.663,288.261 258.318,288.261 			"/>
		</g>
		<path style="opacity:0.1;fill:#0F0F0F;" d="M414.72,158.874h-83.098c-0.051-0.359-0.153-0.717-0.205-1.075
			c-0.205-0.615-0.512-1.127-0.819-1.536c-0.205-0.256-0.409-0.564-0.614-0.717c-0.205-0.154-0.41-0.358-0.563-0.461
			c-0.307-0.205-0.563-0.308-0.563-0.308c-1.843-0.819-5.069-1.536-7.117-1.536h-3.226c0.051-0.103,0.051-0.256,0.103-0.358
			c0.051-0.154,0.051-0.256,0.051-0.409c0-1.178-0.461-2.202-1.229-2.919c-0.409-0.409-0.819-0.716-1.331-0.921
			c-0.512-0.205-1.075-0.308-1.639-0.308c-0.563,0-1.126,0.103-1.638,0.308c-0.461,0.205-0.922,0.512-1.28,0.921
			c-0.768,0.717-1.229,1.741-1.229,2.919c0,0.102,0.051,0.307,0.051,0.409c0,0.102,0.051,0.256,0.051,0.358h-8.55
			c-2.048,0-3.738-1.638-3.738-3.738v-24.781c0-0.358-0.051-0.768-0.154-1.126c-0.102-0.358-0.307-0.666-0.461-0.973
			c-0.666-0.973-1.792-1.638-3.072-1.638H256v12.391h26.01c1.024,0,1.946,0.461,2.662,1.075c0.666,0.716,1.075,1.638,1.075,2.663
			v21.76H256v232.141h158.72c5.939,0,10.752-4.813,10.752-10.752V169.574C425.472,163.686,420.659,158.874,414.72,158.874z"/>
	</g>
</g>
</svg>
