<?xml version="1.0" encoding="iso-8859-1"?>
<!-- Generator: Adobe Illustrator 18.0.0, SVG Export Plug-In . SVG Version: 6.00 Build 0)  -->
<!DOCTYPE svg PUBLIC "-//W3C//DTD SVG 1.1//EN" "http://www.w3.org/Graphics/SVG/1.1/DTD/svg11.dtd">
<svg version="1.1" id="_x30_" xmlns="http://www.w3.org/2000/svg" xmlns:xlink="http://www.w3.org/1999/xlink" x="0px" y="0px"
	 viewBox="0 0 512 512" style="enable-background:new 0 0 512 512;" xml:space="preserve">
<g>
	<rect style="opacity:0;fill:#FFFFFF;" width="512" height="512"/>
	<polygon style="opacity:0.1;fill:#231815;" points="512,225.28 512,512 226.714,512 143.257,428.544 131.994,417.28 
		131.994,248.064 176.691,185.907 178.944,182.733 215.757,131.533 223.181,121.191 250.317,83.456 370.176,83.456 380.007,93.287 	
		"/>
	<g>
		<rect x="131.994" y="83.456" style="fill:#FFFFFF;" width="248.013" height="345.088"/>
		<polygon style="fill:#E3E1E1;" points="380.021,258.711 380.021,428.562 204.777,428.562 169.728,393.509 191.299,318.023 
			169.728,296.452 245.214,220.961 266.785,242.532 342.276,220.961 		"/>
		<rect x="169.747" y="318.009" style="fill:#D55A43;" width="75.491" height="75.495"/>
		<rect x="169.747" y="121.198" style="fill:#EA9A7B;" width="172.552" height="64.705"/>
		<polygon style="fill:#E78D76;" points="178.96,131.527 342.299,131.527 342.299,121.198 169.747,121.198 169.747,185.903 
			178.96,185.903 		"/>
		<rect x="266.809" y="220.952" style="fill:#D55A43;" width="75.49" height="75.491"/>
		<rect x="169.747" y="220.952" style="fill:#D55A43;" width="75.491" height="75.491"/>
		<rect x="266.809" y="318.009" style="fill:#10200E;" width="75.49" height="75.495"/>
		<rect x="282.982" y="253.305" style="fill:#FFFFFF;" width="43.134" height="10.786"/>
		<polygon style="fill:#FFFFFF;" points="229.064,253.305 212.889,253.305 212.889,237.13 202.099,237.13 202.099,253.305 
			185.925,253.305 185.925,264.09 202.099,264.09 202.099,280.268 212.889,280.268 212.889,264.09 229.064,264.09 		"/>
		<polygon style="fill:#FFFFFF;" points="228.355,369.652 214.448,355.754 228.355,341.847 221.403,334.897 207.497,348.799 
			193.585,334.897 186.64,341.847 200.546,355.754 186.64,369.652 193.585,376.616 207.497,362.705 221.403,376.616 		"/>
		<rect x="282.982" y="336.884" style="fill:#D7D7D8;" width="43.134" height="10.786"/>
		<rect x="282.982" y="363.844" style="fill:#D7D7D8;" width="43.134" height="10.786"/>
	</g>
</g>
</svg>
