<?xml version="1.0" encoding="iso-8859-1"?>
<!-- Generator: Adobe Illustrator 18.0.0, SVG Export Plug-In . SVG Version: 6.00 Build 0)  -->
<!DOCTYPE svg PUBLIC "-//W3C//DTD SVG 1.1//EN" "http://www.w3.org/Graphics/SVG/1.1/DTD/svg11.dtd">
<svg version="1.1" id="_x30_" xmlns="http://www.w3.org/2000/svg" xmlns:xlink="http://www.w3.org/1999/xlink" x="0px" y="0px"
	 viewBox="0 0 512 512" style="enable-background:new 0 0 512 512;" xml:space="preserve">
<g>
	<rect style="opacity:0;fill:#FFFFFF;" width="512" height="512"/>
	<path style="opacity:0.1;fill:#040000;" d="M512,209.869V512H209.818L82.637,384.819V124.825c0-3.737,3.072-6.809,6.81-6.809h84.48
		l31.846,31.845v-25.036c0-3.737,3.021-6.809,6.81-6.809h84.48l9.165,9.164l22.631,22.631v-24.986c0-3.737,3.072-6.809,6.809-6.809
		h84.48l9.216,9.215L512,209.869z"/>
	<g>
		<path style="fill:#F5AB50;" d="M183.143,124.825v262.349c0,3.737-3.072,6.81-6.81,6.81H89.447c-3.738,0-6.81-3.073-6.81-6.81
			V124.825c0-3.737,3.072-6.809,6.81-6.809h86.886C180.071,118.016,183.143,121.088,183.143,124.825z"/>
		<path style="fill:#F5AB50;" d="M148.223,283.255H117.56c-11.243,0-20.441-9.199-20.441-20.442v-91.987
			c0-11.243,9.199-20.441,20.441-20.441h30.662c11.243,0,20.442,9.199,20.442,20.441v91.987
			C168.664,274.056,159.465,283.255,148.223,283.255z"/>
		<path style="fill:#FFFFFF;" d="M158.869,283.255h-51.956c-5.387,0-9.795-4.408-9.795-9.795V160.18
			c0-5.387,4.408-9.795,9.795-9.795h51.956c5.387,0,9.795,4.408,9.795,9.795v113.28
			C168.664,278.847,164.257,283.255,158.869,283.255z"/>
		<g>
			<path style="opacity:0.2;fill:#171716;" d="M132.891,378.193c-14.551,0-26.389-11.838-26.389-26.388
				c0-14.551,11.838-26.389,26.389-26.389c14.55,0,26.388,11.838,26.388,26.389C159.28,366.355,147.442,378.193,132.891,378.193z"/>
			<circle style="fill:#FFFFFF;" cx="132.891" cy="351.804" r="18.472"/>
		</g>
		<rect x="109.895" y="172.53" style="fill:#F5AB50;" width="45.993" height="11.073"/>
		<rect x="109.895" y="205.747" style="fill:#F5AB50;" width="45.993" height="11.073"/>
		<rect x="109.895" y="238.965" style="fill:#F5AB50;" width="45.993" height="11.073"/>
		<rect x="82.637" y="299.52" style="fill:#FFFFFF;" width="100.506" height="10.035"/>
		<path style="fill:#ED7B84;" d="M306.227,124.825v262.349c0,3.737-3.021,6.81-6.809,6.81h-86.835c-3.789,0-6.81-3.073-6.81-6.81
			V124.825c0-3.737,3.021-6.809,6.81-6.809h86.835C303.207,118.016,306.227,121.088,306.227,124.825z"/>
		<path style="fill:#ED7B84;" d="M271.331,283.255h-30.662c-11.243,0-20.442-9.199-20.442-20.442v-91.987
			c0-11.243,9.199-20.441,20.442-20.441h30.662c11.243,0,20.442,9.199,20.442,20.441v91.987
			C291.773,274.056,282.574,283.255,271.331,283.255z"/>
		<path style="fill:#FFFFFF;" d="M281.978,283.255h-51.956c-5.387,0-9.795-4.408-9.795-9.795V160.18
			c0-5.387,4.408-9.795,9.795-9.795h51.956c5.387,0,9.795,4.408,9.795,9.795v113.28
			C291.773,278.847,287.365,283.255,281.978,283.255z"/>
		<g>
			<path style="opacity:0.2;fill:#171716;" d="M256,378.193c-14.551,0-26.389-11.838-26.389-26.388
				c0-14.551,11.838-26.389,26.389-26.389s26.388,11.838,26.388,26.389C282.388,366.355,270.551,378.193,256,378.193z"/>
			<circle style="fill:#FFFFFF;" cx="256" cy="351.804" r="18.472"/>
		</g>
		<rect x="233.003" y="172.53" style="fill:#ED7B84;" width="45.994" height="11.073"/>
		<rect x="233.003" y="205.747" style="fill:#ED7B84;" width="45.994" height="11.073"/>
		<rect x="233.003" y="238.965" style="fill:#ED7B84;" width="45.994" height="11.073"/>
		<rect x="205.748" y="299.518" style="fill:#FFFFFF;" width="100.504" height="10.061"/>
		<path style="fill:#7DC380;" d="M429.363,124.825v262.349c0,3.737-3.072,6.81-6.81,6.81h-86.886c-3.738,0-6.809-3.073-6.809-6.81
			V124.825c0-3.737,3.072-6.809,6.809-6.809h86.886C426.291,118.016,429.363,121.088,429.363,124.825z"/>
		<path style="fill:#7DC380;" d="M394.44,283.255h-30.662c-11.243,0-20.442-9.199-20.442-20.442v-91.987
			c0-11.243,9.199-20.441,20.442-20.441h30.662c11.243,0,20.441,9.199,20.441,20.441v91.987
			C414.881,274.056,405.683,283.255,394.44,283.255z"/>
		<path style="fill:#FFFFFF;" d="M405.086,283.255h-51.956c-5.387,0-9.795-4.408-9.795-9.795V160.18
			c0-5.387,4.408-9.795,9.795-9.795h51.956c5.387,0,9.795,4.408,9.795,9.795v113.28
			C414.881,278.847,410.474,283.255,405.086,283.255z"/>
		<g>
			<path style="opacity:0.2;fill:#171716;" d="M379.109,378.193c-14.55,0-26.388-11.838-26.388-26.388
				c0-14.551,11.838-26.389,26.388-26.389c14.551,0,26.389,11.838,26.389,26.389C405.497,366.355,393.659,378.193,379.109,378.193z"
				/>
			<circle style="fill:#FFFFFF;" cx="379.109" cy="351.804" r="18.472"/>
		</g>
		<rect x="356.112" y="172.53" style="fill:#7DC380;" width="45.993" height="11.073"/>
		<rect x="356.112" y="205.747" style="fill:#7DC380;" width="45.993" height="11.073"/>
		<rect x="356.112" y="238.965" style="fill:#7DC380;" width="45.993" height="11.073"/>
		<rect x="328.856" y="299.518" style="fill:#FFFFFF;" width="100.504" height="10.061"/>
	</g>
	<g style="opacity:0.08;">
		<polygon style="fill:#040000;" points="183.144,393.98 183.144,328.856 118.019,393.98 		"/>
		<polygon style="fill:#040000;" points="205.748,309.579 205.748,393.98 306.252,393.98 306.252,309.579 306.252,299.517 
			306.252,205.747 205.748,306.251 		"/>
		<polygon style="fill:#040000;" points="393.981,118.019 328.856,183.144 328.856,299.517 328.856,309.579 328.856,393.98 
			429.361,393.98 429.361,309.579 429.361,299.517 429.361,118.019 		"/>
	</g>
</g>
</svg>
