<?xml version="1.0" encoding="iso-8859-1"?>
<!-- Generator: Adobe Illustrator 18.0.0, SVG Export Plug-In . SVG Version: 6.00 Build 0)  -->
<!DOCTYPE svg PUBLIC "-//W3C//DTD SVG 1.1//EN" "http://www.w3.org/Graphics/SVG/1.1/DTD/svg11.dtd">
<svg version="1.1" id="_x30_" xmlns="http://www.w3.org/2000/svg" xmlns:xlink="http://www.w3.org/1999/xlink" x="0px" y="0px"
	 viewBox="0 0 512 512" style="enable-background:new 0 0 512 512;" xml:space="preserve">
<g>
	<rect style="opacity:0;fill:#FFFFFF;" width="512" height="512"/>
	<path style="opacity:0.1;fill:#040000;" d="M512,314.931V512H250.009L93.082,355.072l-13.978-13.978V228.813
		c0-0.461,0-0.922,0.051-1.382c0.103-0.921,0.307-1.843,0.666-2.714h-0.717l1.638-2.048l2.407-2.868l49.152-60.057h52.019v-39.988
		h132.505l10.855,10.854l29.133,29.133l76.083,76.083L512,314.931z"/>
	<g>
		<rect x="184.32" y="119.757" style="fill:#F0EFEF;" width="143.36" height="78.234"/>
		<path style="fill:#858585;" d="M432.896,228.813v114.176c0,6.656-5.427,12.082-12.032,12.082H91.136
			c-6.605,0-12.032-5.427-12.032-12.082V228.813c0-0.461,0-0.922,0.051-1.382c0.103-0.921,0.307-1.843,0.666-2.714
			c0.256-0.717,0.563-1.383,0.922-2.048l2.407-2.868c2.099-1.946,4.966-3.072,7.987-3.072h329.728c3.021,0,5.888,1.127,7.987,3.072
			l2.407,2.868c0.358,0.665,0.666,1.331,0.922,2.048c0.358,0.871,0.563,1.792,0.666,2.714
			C432.896,227.891,432.896,228.352,432.896,228.813z"/>
		<polygon style="fill:#4F4E4F;" points="432.896,224.717 79.104,224.717 80.742,222.669 83.149,219.802 132.301,159.744 
			379.699,159.744 428.851,219.802 431.257,222.669 		"/>
		<path style="fill:#4F4E4F;" d="M349.816,277.71v77.358H162.184V277.71c0-10.32,8.443-18.763,18.763-18.763h150.106
			C341.373,258.947,349.816,267.39,349.816,277.71z"/>
		<g>
			<g style="opacity:0.1;">
				<path style="fill:#040000;" d="M100.55,266.988L100.55,266.988c-5.736,0-10.387-4.65-10.387-10.387l0,0
					c0-5.737,4.65-10.387,10.387-10.387l0,0c5.736,0,10.387,4.65,10.387,10.387l0,0C110.937,262.338,106.286,266.988,100.55,266.988
					z"/>
				<path style="fill:#040000;" d="M131.71,266.988L131.71,266.988c-5.737,0-10.387-4.65-10.387-10.387l0,0
					c0-5.737,4.65-10.387,10.387-10.387l0,0c5.736,0,10.387,4.65,10.387,10.387l0,0C142.097,262.338,137.447,266.988,131.71,266.988
					z"/>
			</g>
			<g style="opacity:0.1;">
				<path style="fill:#040000;" d="M376.637,266.988L376.637,266.988c-5.737,0-10.387-4.65-10.387-10.387l0,0
					c0-5.737,4.65-10.387,10.387-10.387l0,0c5.736,0,10.387,4.65,10.387,10.387l0,0
					C387.024,262.338,382.374,266.988,376.637,266.988z"/>
				<path style="fill:#040000;" d="M407.798,266.988L407.798,266.988c-5.737,0-10.387-4.65-10.387-10.387l0,0
					c0-5.737,4.65-10.387,10.387-10.387h0c5.736,0,10.387,4.65,10.387,10.387l0,0C418.184,262.338,413.534,266.988,407.798,266.988z
					"/>
			</g>
		</g>
		<path style="opacity:0.2;fill:#FFFFFF;" d="M432.845,227.431H79.155c0.103-0.921,0.307-1.843,0.666-2.714h352.358
			C432.537,225.587,432.742,226.509,432.845,227.431z"/>
		<g>
			<rect x="316.179" y="216.394" style="fill:#577FA4;" width="40.781" height="8.336"/>
			<rect x="267.772" y="216.394" style="fill:#A2586D;" width="40.781" height="8.336"/>
			<rect x="364.587" y="216.394" style="fill:#B5B551;" width="40.781" height="8.336"/>
		</g>
		<path style="fill:#383A3D;" d="M336.924,277.486H173.395c-0.803,0-1.455,0.651-1.455,1.455v3.681c0,0.803,0.651,1.454,1.455,1.454
			h163.529c0.803,0,1.454-0.651,1.454-1.454v-3.681C338.378,278.138,337.727,277.486,336.924,277.486z"/>
		<polygon style="fill:#F0EFEF;" points="363.004,392.219 148.996,392.219 169.113,308.388 175.586,281.436 336.414,281.436 
			342.887,308.388 		"/>
		<polygon style="opacity:0.06;fill:#040000;" points="342.887,308.388 169.113,308.388 175.586,281.436 336.414,281.436 		"/>
	</g>
	<path style="opacity:0.06;fill:#FFFFFF;" d="M327.68,159.744v-39.988H184.32v39.988h-52.019l-49.152,60.057l-2.407,2.868
		l-1.638,2.048h0.717c-0.358,0.871-0.563,1.792-0.666,2.714c-0.051,0.461-0.051,0.921-0.051,1.382v114.176
		c0,6.656,5.427,12.082,12.032,12.082h65.78l195.327-195.327H327.68z"/>
</g>
</svg>
